<svg width="32" height="33" viewBox="0 0 32 33" fill="none" xmlns="http://www.w3.org/2000/svg">
<g clip-path="url(#clip0_560_502)">
<path fill-rule="evenodd" clip-rule="evenodd" d="M20.4446 10.3019C19.129 9.42281 17.5822 8.95361 16 8.95361V0.953613C19.1645 0.953613 22.2579 1.892 24.8891 3.6501C27.5203 5.4082 29.571 7.90706 30.7821 10.8307C31.993 13.7543 32.3099 16.9714 31.6926 20.0751C31.0752 23.1787 29.5514 26.0297 27.3137 28.2673C25.0761 30.505 22.2251 32.0288 19.1214 32.6462C16.0178 33.2635 12.8006 32.9467 9.87704 31.7357C6.95345 30.5247 4.45458 28.4739 2.69649 25.8427C0.938384 23.2115 0 20.1181 0 16.9536H8C8 18.5359 8.4692 20.0826 9.34824 21.3982C10.2273 22.7138 11.4767 23.7391 12.9386 24.3447C14.4003 24.9502 16.0089 25.1086 17.5607 24.7999C19.1126 24.4912 20.538 23.7293 21.6569 22.6105C22.7757 21.4916 23.5376 20.0662 23.8462 18.5143C24.155 16.9625 23.9966 15.3539 23.391 13.8922C22.7855 12.4303 21.7602 11.1809 20.4446 10.3019Z" fill="#007BFF"/>
<path fill-rule="evenodd" clip-rule="evenodd" d="M8 0.953617C8 2.00419 7.79308 3.04448 7.39104 4.01508C6.989 4.98569 6.39972 5.8676 5.65685 6.61047C4.91399 7.35334 4.03208 7.94262 3.06147 8.34466C2.09086 8.74669 1.05057 8.95362 3.49688e-07 8.95362L0 16.9536C2.10115 16.9536 4.18172 16.5398 6.12294 15.7357C8.06416 14.9316 9.828 13.7531 11.3137 12.2673C12.7994 10.7816 13.978 9.01778 14.7821 7.07655C15.5862 5.13534 16 3.05476 16 0.953613L8 0.953617Z" fill="#007BFF"/>
</g>
<defs>
<clipPath id="clip0_560_502">
<rect width="32" height="32" fill="white" transform="translate(0 0.953613)"/>
</clipPath>
</defs>
</svg>
