<svg width="24" height="25" viewBox="0 0 24 25" fill="none" xmlns="http://www.w3.org/2000/svg">
<path fill-rule="evenodd" clip-rule="evenodd" d="M16 4.19629H8C5.23858 4.19629 3 6.43487 3 9.19629V17.1963C3 19.9577 5.23858 22.1963 8 22.1963H16C18.7614 22.1963 21 19.9577 21 17.1963V9.19629C21 6.43487 18.7614 4.19629 16 4.19629ZM19.25 17.1963C19.2445 18.9889 17.7926 20.4408 16 20.4463H8C6.20735 20.4408 4.75549 18.9889 4.75 17.1963V9.19629C4.75549 7.40364 6.20735 5.95178 8 5.94629H16C17.7926 5.95178 19.2445 7.40364 19.25 9.19629V17.1963ZM16.75 9.44629C17.3023 9.44629 17.75 8.99857 17.75 8.44629C17.75 7.89401 17.3023 7.44629 16.75 7.44629C16.1977 7.44629 15.75 7.89401 15.75 8.44629C15.75 8.99857 16.1977 9.44629 16.75 9.44629ZM12 8.69629C9.51472 8.69629 7.5 10.711 7.5 13.1963C7.5 15.6816 9.51472 17.6963 12 17.6963C14.4853 17.6963 16.5 15.6816 16.5 13.1963C16.5027 12.002 16.0294 10.8559 15.1849 10.0114C14.3404 9.16688 13.1943 8.69363 12 8.69629ZM9.25 13.1963C9.25 14.7151 10.4812 15.9463 12 15.9463C13.5188 15.9463 14.75 14.7151 14.75 13.1963C14.75 11.6775 13.5188 10.4463 12 10.4463C10.4812 10.4463 9.25 11.6775 9.25 13.1963Z" fill="black"/>
</svg>
