<svg width="24" height="25" viewBox="0 0 24 25" fill="none" xmlns="http://www.w3.org/2000/svg">
<path fill-rule="evenodd" clip-rule="evenodd" d="M4.5 4.19629C3.67157 4.19629 3 4.86786 3 5.69629V20.6963C3 21.5247 3.67157 22.1963 4.5 22.1963H19.5C20.3284 22.1963 21 21.5247 21 20.6963V5.69629C21 4.86786 20.3284 4.19629 19.5 4.19629H4.5ZM8.52076 8.19901C8.52639 9.15526 7.81061 9.74448 6.96123 9.74026C6.16107 9.73604 5.46357 9.09901 5.46779 8.20042C5.47201 7.35526 6.13998 6.67604 7.00764 6.69573C7.88795 6.71542 8.52639 7.36089 8.52076 8.19901ZM12.2797 10.958H9.75971H9.7583V19.5179H12.4217V19.3182C12.4217 18.9383 12.4214 18.5583 12.4211 18.1782C12.4203 17.1644 12.4194 16.1495 12.4246 15.136C12.426 14.8899 12.4372 14.634 12.5005 14.3991C12.7381 13.5216 13.5271 12.9549 14.4074 13.0942C14.9727 13.1827 15.3467 13.5104 15.5042 14.0434C15.6013 14.3766 15.6449 14.7352 15.6491 15.0826C15.6605 16.1302 15.6589 17.1778 15.6573 18.2255C15.6567 18.5953 15.6561 18.9653 15.6561 19.3351V19.5165H18.328V19.3112C18.328 18.8592 18.3278 18.4073 18.3275 17.9554C18.327 16.8259 18.3264 15.6964 18.3294 14.5665C18.3308 14.056 18.276 13.5526 18.1508 13.059C17.9638 12.3249 17.5771 11.7174 16.9485 11.2787C16.5027 10.9665 16.0133 10.7654 15.4663 10.7429C15.404 10.7403 15.3412 10.7369 15.2781 10.7335C14.9984 10.7184 14.7141 10.703 14.4467 10.7569C13.6817 10.9102 13.0096 11.2604 12.5019 11.8777C12.4429 11.9485 12.3852 12.0204 12.2991 12.1277L12.2797 12.152V10.958ZM5.68164 19.5207H8.33242V10.9636H5.68164V19.5207Z" fill="black"/>
</svg>
