<svg width="24" height="25" viewBox="0 0 24 25" fill="none" xmlns="http://www.w3.org/2000/svg">
<path d="M21.5933 8.15662C21.4794 7.73402 21.2568 7.34863 20.9477 7.03879C20.6386 6.72895 20.2537 6.50548 19.8313 6.39062C18.2653 5.96062 12.0003 5.95362 12.0003 5.95362C12.0003 5.95362 5.73633 5.94662 4.16933 6.35762C3.74725 6.47777 3.36315 6.7044 3.0539 7.01576C2.74464 7.32711 2.52062 7.71274 2.40333 8.13562C1.99033 9.70162 1.98633 12.9496 1.98633 12.9496C1.98633 12.9496 1.98233 16.2136 2.39233 17.7636C2.62233 18.6206 3.29733 19.2976 4.15533 19.5286C5.73733 19.9586 11.9853 19.9656 11.9853 19.9656C11.9853 19.9656 18.2503 19.9726 19.8163 19.5626C20.2388 19.448 20.6241 19.225 20.934 18.9158C21.2439 18.6066 21.4677 18.2219 21.5833 17.7996C21.9973 16.2346 22.0003 12.9876 22.0003 12.9876C22.0003 12.9876 22.0203 9.72262 21.5933 8.15662ZM9.99633 15.9586L10.0013 9.95862L15.2083 12.9636L9.99633 15.9586Z" fill="black"/>
</svg>
