<svg width="200" height="57" viewBox="0 0 200 57" fill="none" xmlns="http://www.w3.org/2000/svg">
<g clip-path="url(#clip0_16_6943)">
<path fill-rule="evenodd" clip-rule="evenodd" d="M60.2395 46.9602C70.1584 46.9602 78.1996 38.9191 78.1996 29.0001C78.1996 19.081 70.1584 11.04 60.2395 11.04C50.3203 11.04 42.2793 19.081 42.2793 29.0001C42.2793 38.9191 50.3203 46.9602 60.2395 46.9602ZM61.4558 19.562C62.9388 18.8955 64.6424 18.9296 66.0975 19.655C68.2503 20.7282 68.2055 23.8151 66.0223 24.8253L61.1791 27.0665C60.7168 27.2805 60.1816 27.2706 59.7273 27.0398L55.1743 24.7261C54.701 24.4856 54.1223 24.6743 53.8818 25.1476C53.6413 25.6209 53.83 26.1996 54.3033 26.4401L59.5756 29.1195C60.1011 29.3863 60.7194 29.3976 61.2542 29.1501L66.8298 26.5702C70.4761 24.8829 70.5509 19.7269 66.9552 17.9344C64.9843 16.9517 62.6764 16.9055 60.6675 17.8085L50.761 22.2615C50.0706 22.5718 49.6266 23.2583 49.6266 24.0151V27.178C49.6266 27.9072 50.0389 28.5734 50.6914 28.8987L59.5693 33.3249C60.1094 33.5939 60.7447 33.5939 61.2848 33.3249L68.428 29.7638C68.8311 29.5625 69.305 29.8559 69.305 30.3066C69.305 30.5364 69.175 30.7466 68.9691 30.8494L61.1691 34.738C60.7018 34.9709 60.1523 34.9709 59.6851 34.738L52.407 31.1094C51.1288 30.4722 49.6266 31.4018 49.6266 32.83V34.5358C49.6266 35.2649 50.0389 35.9314 50.6914 36.2567L59.5726 40.6842C60.1091 40.9516 60.7397 40.9536 61.2778 40.6895L68.0764 37.3516C68.553 37.1174 68.7496 36.5414 68.5158 36.0648C68.2816 35.5882 67.7059 35.3916 67.2293 35.6257L61.1691 38.6008C60.7035 38.8296 60.158 38.828 59.694 38.5965L51.972 34.7467C51.7129 34.6176 51.5492 34.3529 51.5492 34.0635C51.5492 33.4965 52.1456 33.1273 52.6531 33.3804L59.5693 36.8284C60.1094 37.0978 60.7447 37.0978 61.2848 36.8284L70.1628 32.4026C70.8153 32.0773 71.2277 31.4108 71.2277 30.6817V29.3264C71.2277 27.8982 69.7254 26.9685 68.4472 27.6057L61.1691 31.2342C60.7018 31.467 60.1523 31.467 59.6851 31.2342L52.4702 27.6372C51.9059 27.3559 51.5492 26.7795 51.5492 26.1489V25.0908C51.5492 24.4362 51.9333 23.8425 52.5304 23.5741L61.4558 19.562Z" fill="black"/>
<path d="M89.4245 23.8498V27.6789H94.5661V30.1075H89.4245V34.1552H95.2226V36.6496H86.3613V21.3555H95.2226V23.8498H89.4245Z" fill="black"/>
<path d="M100.194 26.2999C100.588 25.7165 101.128 25.2424 101.813 24.8778C102.514 24.5131 103.308 24.3307 104.198 24.3307C105.234 24.3307 106.167 24.586 106.999 25.0965C107.845 25.6071 108.509 26.3364 108.99 27.2845C109.486 28.218 109.734 29.3049 109.734 30.5448C109.734 31.7844 109.486 32.8859 108.99 33.8485C108.509 34.7967 107.845 35.5334 106.999 36.0585C106.167 36.5834 105.234 36.8461 104.198 36.8461C103.294 36.8461 102.499 36.6712 101.813 36.321C101.142 35.9564 100.602 35.4895 100.194 34.9207V36.6492H97.1309V20.458H100.194V26.2999ZM106.605 30.5448C106.605 29.8154 106.452 29.1881 106.145 28.663C105.854 28.1232 105.46 27.7147 104.964 27.4377C104.483 27.1605 103.957 27.022 103.389 27.022C102.834 27.022 102.309 27.1678 101.813 27.4596C101.332 27.7367 100.938 28.1451 100.632 28.6849C100.34 29.2244 100.194 29.859 100.194 30.5884C100.194 31.3177 100.34 31.9523 100.632 32.4918C100.938 33.0316 101.332 33.4473 101.813 33.739C102.309 34.0164 102.834 34.1548 103.389 34.1548C103.957 34.1548 104.483 34.0091 104.964 33.7171C105.46 33.4254 105.854 33.0096 106.145 32.4702C106.452 31.9304 106.605 31.2885 106.605 30.5448Z" fill="black"/>
<path d="M116.466 36.8464C115.3 36.8464 114.249 36.591 113.316 36.0805C112.382 35.5553 111.645 34.8189 111.106 33.8707C110.581 32.9225 110.318 31.8286 110.318 30.5887C110.318 29.3488 110.588 28.2549 111.128 27.3067C111.682 26.3586 112.433 25.6293 113.381 25.1187C114.329 24.5936 115.387 24.3311 116.554 24.3311C117.721 24.3311 118.779 24.5936 119.726 25.1187C120.675 25.6293 121.419 26.3586 121.958 27.3067C122.513 28.2549 122.79 29.3488 122.79 30.5887C122.79 31.8286 122.505 32.9225 121.937 33.8707C121.382 34.8189 120.624 35.5553 119.661 36.0805C118.713 36.591 117.648 36.8464 116.466 36.8464ZM116.466 34.177C117.021 34.177 117.539 34.0457 118.02 33.7833C118.516 33.5062 118.91 33.0978 119.201 32.558C119.493 32.0182 119.639 31.362 119.639 30.5887C119.639 29.4362 119.333 28.5539 118.72 27.9412C118.122 27.314 117.385 27.0004 116.51 27.0004C115.635 27.0004 114.899 27.314 114.3 27.9412C113.717 28.5539 113.425 29.4362 113.425 30.5887C113.425 31.7411 113.709 32.6308 114.279 33.2581C114.862 33.8707 115.591 34.177 116.466 34.177Z" fill="black"/>
<path d="M129.545 36.8464C128.378 36.8464 127.328 36.591 126.394 36.0805C125.461 35.5553 124.724 34.8189 124.184 33.8707C123.659 32.9225 123.396 31.8286 123.396 30.5887C123.396 29.3488 123.667 28.2549 124.206 27.3067C124.76 26.3586 125.512 25.6293 126.46 25.1187C127.408 24.5936 128.466 24.3311 129.632 24.3311C130.799 24.3311 131.857 24.5936 132.805 25.1187C133.753 25.6293 134.497 26.3586 135.037 27.3067C135.591 28.2549 135.868 29.3488 135.868 30.5887C135.868 31.8286 135.584 32.9225 135.015 33.8707C134.461 34.8189 133.702 35.5553 132.739 36.0805C131.791 36.591 130.726 36.8464 129.545 36.8464ZM129.545 34.177C130.099 34.177 130.617 34.0457 131.098 33.7833C131.594 33.5062 131.988 33.0978 132.28 32.558C132.571 32.0182 132.717 31.362 132.717 30.5887C132.717 29.4362 132.411 28.5539 131.798 27.9412C131.2 27.314 130.464 27.0004 129.589 27.0004C128.713 27.0004 127.977 27.314 127.379 27.9412C126.795 28.5539 126.504 29.4362 126.504 30.5887C126.504 31.7411 126.788 32.6308 127.357 33.2581C127.94 33.8707 128.67 34.177 129.545 34.177Z" fill="black"/>
<path d="M144.417 36.6492L140.303 31.4854V36.6492H137.24V20.458H140.303V29.6694L144.373 24.5277H148.355L143.016 30.6103L148.399 36.6492H144.417Z" fill="black"/>
<path d="M153.779 36.8464C152.787 36.8464 151.898 36.6715 151.11 36.3213C150.322 35.9568 149.695 35.4678 149.228 34.8552C148.776 34.2426 148.528 33.5644 148.484 32.8204H151.57C151.628 33.2874 151.854 33.6738 152.248 33.9801C152.656 34.2865 153.16 34.4395 153.758 34.4395C154.341 34.4395 154.793 34.3231 155.114 34.0896C155.45 33.8561 155.617 33.5571 155.617 33.1926C155.617 32.7984 155.413 32.5068 155.005 32.3172C154.611 32.113 153.977 31.8941 153.101 31.661C152.197 31.4421 151.453 31.216 150.869 30.9825C150.301 30.7493 149.804 30.3918 149.382 29.9105C148.973 29.4289 148.769 28.78 148.769 27.9632C148.769 27.2921 148.959 26.6795 149.338 26.1252C149.732 25.5709 150.286 25.1333 151.001 24.8124C151.73 24.4915 152.583 24.3311 153.561 24.3311C155.005 24.3311 156.157 24.6957 157.018 25.4251C157.878 26.1398 158.352 27.1098 158.44 28.335H155.508C155.464 27.8538 155.26 27.4745 154.895 27.1973C154.545 26.9056 154.071 26.7597 153.473 26.7597C152.919 26.7597 152.488 26.8618 152.182 27.066C151.89 27.2703 151.744 27.5547 151.744 27.9193C151.744 28.3277 151.949 28.6413 152.357 28.8602C152.766 29.0644 153.4 29.2759 154.261 29.4948C155.136 29.7136 155.858 29.9395 156.427 30.1729C156.996 30.4064 157.484 30.7709 157.893 31.2668C158.316 31.7484 158.535 32.39 158.549 33.1926C158.549 33.8927 158.352 34.5199 157.959 35.074C157.579 35.6285 157.025 36.0658 156.296 36.3868C155.581 36.6931 154.742 36.8464 153.779 36.8464Z" fill="black"/>
</g>
<defs>
<clipPath id="clip0_16_6943">
<rect width="200" height="56" fill="white" transform="translate(0 0.954102)"/>
</clipPath>
</defs>
</svg>
