<svg width="200" height="57" viewBox="0 0 200 57" fill="none" xmlns="http://www.w3.org/2000/svg">
<g clip-path="url(#clip0_16_6920)">
<path fill-rule="evenodd" clip-rule="evenodd" d="M62.8816 18.5599H49.502V12.8838H68.5575V31.9394H62.8816V18.5599Z" fill="black"/>
<path fill-rule="evenodd" clip-rule="evenodd" d="M52.4298 29.8544C51.563 29.2753 50.544 28.9662 49.5015 28.9662V23.29C51.6666 23.29 53.7831 23.9321 55.5833 25.1349C57.3835 26.3378 58.7865 28.0474 59.6151 30.0477C60.4436 32.0481 60.6605 34.2491 60.2381 36.3725C59.8157 38.4958 58.7732 40.4465 57.2421 41.9773C55.7111 43.5085 53.7606 44.551 51.6371 44.9735C49.5136 45.3959 47.3126 45.179 45.3123 44.3504C43.3121 43.5218 41.6024 42.1189 40.3996 40.3186C39.1967 38.5182 38.5547 36.402 38.5547 34.2367H44.2308C44.2308 35.2793 44.5399 36.2984 45.1191 37.165C45.6982 38.0319 46.5214 38.7075 47.4845 39.1062C48.4476 39.5053 49.5073 39.6098 50.5298 39.4062C51.5522 39.203 52.4913 38.701 53.2285 37.9637C53.9656 37.2267 54.4676 36.2874 54.671 35.265C54.8743 34.2426 54.7699 33.1828 54.371 32.2199C53.9721 31.2568 53.2965 30.4336 52.4298 29.8544Z" fill="black"/>
<path d="M77.4766 40.7374V16.9229H86.2879C88.1931 16.9229 89.7694 17.2404 91.0168 17.8754C92.2642 18.5105 93.1941 19.3837 93.8064 20.495C94.4188 21.6064 94.7249 22.8538 94.7249 24.2373C94.7249 25.5528 94.4301 26.7661 93.8405 27.8775C93.2506 28.9661 92.3321 29.8507 91.0847 30.5311C89.8373 31.1888 88.2382 31.5177 86.2879 31.5177H81.8311V40.7374H77.4766ZM81.8311 27.9796H86.0155C87.5353 27.9796 88.624 27.6507 89.2818 26.993C89.962 26.3125 90.3022 25.394 90.3022 24.2373C90.3022 23.0579 89.962 22.1394 89.2818 21.4816C88.624 20.8012 87.5353 20.461 86.0155 20.461H81.8311V27.9796Z" fill="black"/>
<path d="M103.675 41.1448C101.974 41.1448 100.466 40.7818 99.1502 40.0562C97.8346 39.3305 96.8027 38.3097 96.0544 36.9942C95.306 35.6789 94.9316 34.1594 94.9316 32.4357C94.9316 30.6892 95.2946 29.1355 96.0203 27.7747C96.7687 26.4139 97.7894 25.3593 99.0823 24.6108C100.398 23.8397 101.94 23.4541 103.709 23.4541C105.365 23.4541 106.827 23.817 108.098 24.5428C109.368 25.2686 110.354 26.2665 111.057 27.5366C111.783 28.784 112.146 30.1789 112.146 31.7211C112.146 31.9704 112.135 32.2315 112.112 32.5036C112.112 32.7756 112.101 33.0594 112.078 33.3542H99.2521C99.343 34.6695 99.7966 35.7016 100.613 36.45C101.452 37.1984 102.462 37.5727 103.641 37.5727C104.525 37.5727 105.262 37.3799 105.852 36.9942C106.465 36.586 106.918 36.0643 107.213 35.4292H111.636C111.318 36.4955 110.785 37.4705 110.037 38.3552C109.311 39.2169 108.404 39.8974 107.315 40.3964C106.249 40.8955 105.036 41.1448 103.675 41.1448ZM103.709 26.9923C102.643 26.9923 101.702 27.2984 100.885 27.9108C100.069 28.5005 99.5472 29.4077 99.3203 30.6325H107.724C107.655 29.5211 107.247 28.6366 106.499 27.9788C105.75 27.3211 104.82 26.9923 103.709 26.9923Z" fill="black"/>
<path d="M114.107 40.7367V23.8623H117.952L118.292 26.7201C118.814 25.7222 119.562 24.9283 120.537 24.3386C121.535 23.749 122.703 23.4541 124.041 23.4541C126.128 23.4541 127.75 24.1118 128.906 25.4273C130.063 26.7428 130.641 28.6706 130.641 31.2108V40.7367H126.287V31.6191C126.287 30.1675 125.992 29.0562 125.402 28.285C124.813 27.5139 123.894 27.1283 122.646 27.1283C121.422 27.1283 120.413 27.5593 119.619 28.4211C118.848 29.283 118.462 30.4851 118.462 32.0273V40.7367H114.107Z" fill="black"/>
<path d="M140.622 40.737C138.853 40.737 137.436 40.3058 136.37 39.4441C135.304 38.5821 134.771 37.0512 134.771 34.8512V27.5028H131.879V23.8626H134.771L135.281 19.3379H139.125V23.8626H143.684V27.5028H139.125V34.8853C139.125 35.7019 139.295 36.2688 139.636 36.5863C139.999 36.8811 140.611 37.0285 141.473 37.0285H143.582V40.737H140.622Z" fill="black"/>
<path d="M151.539 41.1448C150.087 41.1448 148.896 40.9179 147.966 40.4643C147.037 39.988 146.345 39.3643 145.891 38.5932C145.438 37.8221 145.211 36.9718 145.211 36.0419C145.211 34.4769 145.823 33.2068 147.048 32.2315C148.273 31.2562 150.11 30.7685 152.559 30.7685H156.846V30.3603C156.846 29.2036 156.517 28.3531 155.859 27.8088C155.202 27.2644 154.385 26.9923 153.41 26.9923C152.525 26.9923 151.754 27.2077 151.096 27.6387C150.439 28.0469 150.03 28.6593 149.872 29.4758H145.619C145.732 28.251 146.141 27.185 146.844 26.2778C147.57 25.3706 148.5 24.6788 149.634 24.2026C150.767 23.7036 152.038 23.4541 153.444 23.4541C155.848 23.4541 157.742 24.0551 159.125 25.2572C160.509 26.4593 161.201 28.1603 161.201 30.3603V40.7367H157.492L157.084 38.0149C156.585 38.9221 155.882 39.6705 154.975 40.2604C154.09 40.85 152.945 41.1448 151.539 41.1448ZM152.525 37.7429C153.773 37.7429 154.737 37.3344 155.417 36.5182C156.12 35.7016 156.563 34.6922 156.744 33.4903H153.036C151.879 33.4903 151.051 33.7055 150.552 34.1367C150.053 34.5448 149.804 35.0552 149.804 35.6675C149.804 36.3253 150.053 36.8357 150.552 37.1984C151.051 37.5614 151.709 37.7429 152.525 37.7429Z" fill="black"/>
</g>
<defs>
<clipPath id="clip0_16_6920">
<rect width="200" height="56" fill="white" transform="translate(0 0.954102)"/>
</clipPath>
</defs>
</svg>
