<svg width="200" height="49" viewBox="0 0 200 49" fill="none" xmlns="http://www.w3.org/2000/svg">
<g clip-path="url(#clip0_16_6929)">
<path d="M41.9238 29.2215L50.2521 25.5146L55.0457 28.2947L56.0141 37.4151L50.1068 37.3665L50.9784 31.0258L49.9616 30.4406L44.9743 34.3425L41.9238 29.2215Z" fill="black"/>
<path d="M55.5781 27.9045L62.9381 33.318L65.8432 28.0996L59.9358 25.7097V24.5392L65.8432 22.1005L62.9381 16.9307L55.5781 22.3444V27.9045Z" fill="black"/>
<path d="M55.0457 21.9056L56.0141 12.7852L50.1068 12.8827L50.9784 19.2231L49.9616 19.8084L44.9259 15.9066L41.9238 20.9789L50.2521 24.6856L55.0457 21.9056Z" fill="black"/>
<path d="M85.5523 24.0078V32.5525H88.7315V21.6631H84.1016V24.0078H85.5523Z" fill="black"/>
<path d="M85.4523 20.133C85.7438 20.4376 86.1876 20.5899 86.7836 20.5899C87.38 20.5899 87.8169 20.4376 88.0949 20.133C88.3867 19.8149 88.5321 19.4175 88.5321 18.9407C88.5321 18.4505 88.3867 18.0531 88.0949 17.7484C87.8169 17.4305 87.38 17.2715 86.7836 17.2715C86.1876 17.2715 85.7438 17.4305 85.4523 17.7484C85.1743 18.0531 85.0352 18.4505 85.0352 18.9407C85.0352 19.4175 85.1743 19.8149 85.4523 20.133Z" fill="black"/>
<path d="M74.4845 32.3139C75.3852 32.7245 76.4913 32.93 77.8026 32.93C79.0347 32.93 80.0943 32.7376 80.9821 32.3536C81.8696 31.9696 82.5517 31.4329 83.0286 30.744C83.519 30.0419 83.7639 29.2273 83.7639 28.2999C83.7639 27.3992 83.5325 26.6374 83.0687 26.0148C82.618 25.3789 81.9891 24.8822 81.1807 24.5246C80.3726 24.1535 79.4388 23.9217 78.3789 23.8291L77.2663 23.7297C76.6039 23.6766 76.127 23.4979 75.8355 23.1931C75.5441 22.8885 75.3983 22.5308 75.3983 22.1202C75.3983 21.8022 75.4781 21.5108 75.6366 21.2458C75.7958 20.9676 76.0341 20.7491 76.3521 20.59C76.6833 20.4312 77.0874 20.3516 77.5643 20.3516C78.0675 20.3516 78.485 20.4443 78.8161 20.6299C78.889 20.6691 78.9583 20.711 79.0233 20.7555L79.039 20.7665C79.0633 20.7833 79.0873 20.8008 79.1106 20.8184C79.3118 20.9721 79.472 21.1543 79.5911 21.3651C79.7631 21.6566 79.8497 21.981 79.8497 22.3388H83.0286C83.0286 21.3849 82.81 20.5569 82.3732 19.8549C81.936 19.1395 81.3067 18.5898 80.4855 18.2055C79.6771 17.8081 78.7036 17.6094 77.5643 17.6094C76.4779 17.6094 75.5375 17.795 74.7425 18.1658C73.9479 18.5236 73.3252 19.0402 72.8749 19.7157C72.4374 20.3913 72.2188 21.1929 72.2188 22.1202C72.2188 23.4051 72.6497 24.4383 73.5107 25.2201C74.3716 26.0016 75.5244 26.452 76.9682 26.5712L78.0612 26.6706C78.9484 26.7501 79.5911 26.9289 79.9886 27.207C80.3857 27.472 80.5846 27.8363 80.5846 28.2999C80.5846 28.513 80.5498 28.7129 80.4799 28.8996C80.4281 29.0382 80.3572 29.1695 80.2669 29.2936C80.0546 29.5716 79.7434 29.7902 79.3328 29.9494C78.9222 30.1082 78.4121 30.1876 77.8026 30.1876C77.1271 30.1876 76.5773 30.0951 76.1536 29.9093C75.7295 29.7107 75.4118 29.4524 75.1994 29.1347C75.0008 28.8165 74.9017 28.4722 74.9017 28.1012H71.7422C71.7422 29.0418 71.9739 29.8765 72.4374 30.6048C72.9012 31.3204 73.5835 31.8902 74.4845 32.3139Z" fill="black"/>
<path d="M95.8257 32.6908C94.7261 32.6908 93.8386 32.5585 93.1631 32.2933C92.4873 32.0153 91.9907 31.558 91.6726 30.9223C91.368 30.273 91.2157 29.399 91.2157 28.2993V23.9873H89.5664V21.6625H91.2157V18.7217H94.1764V21.6625H97.3559V23.9873H94.1764V28.4187C94.1764 28.9353 94.309 29.3327 94.5738 29.6107C94.8519 29.8759 95.2428 30.0081 95.7463 30.0081H97.3559V32.6908H95.8257Z" fill="black"/>
<path fill-rule="evenodd" clip-rule="evenodd" d="M101.184 32.4527C101.899 32.7704 102.72 32.9296 103.648 32.9296C104.561 32.9296 105.37 32.7704 106.072 32.4527C106.774 32.1347 107.357 31.6909 107.82 31.1214C108.284 30.5516 108.596 29.9024 108.754 29.174H105.833C105.701 29.5052 105.449 29.7832 105.078 30.0084C104.707 30.2336 104.23 30.3465 103.648 30.3465C103.287 30.3465 102.964 30.3035 102.68 30.2181C102.463 30.1531 102.269 30.0635 102.098 29.949C101.7 29.6841 101.409 29.3129 101.223 28.8362C101.172 28.7003 101.128 28.5583 101.091 28.4103C101.053 28.2604 101.022 28.1044 100.999 27.942H108.953V26.8689C108.953 25.8754 108.741 24.9613 108.317 24.1268C107.893 23.2788 107.277 22.5966 106.469 22.08C105.674 21.5501 104.694 21.2852 103.528 21.2852C102.641 21.2852 101.846 21.4442 101.144 21.7621C100.455 22.0667 99.8789 22.484 99.4151 23.0139C98.9517 23.5438 98.5939 24.1466 98.3418 24.8223C98.1035 25.4845 97.9844 26.18 97.9844 26.9086V27.306C97.9844 28.0082 98.1035 28.697 98.3418 29.3726C98.5939 30.035 98.9517 30.6376 99.4151 31.1808C99.892 31.7109 100.481 32.1347 101.184 32.4527ZM101.054 25.9771C101.063 25.935 101.072 25.8936 101.083 25.8528C101.11 25.7405 101.142 25.6328 101.178 25.5299C101.198 25.4714 101.22 25.4143 101.243 25.3587C101.442 24.8685 101.733 24.4977 102.117 24.246C102.261 24.1519 102.417 24.0754 102.584 24.0166C102.865 23.9178 103.18 23.8684 103.528 23.8684C104.072 23.8684 104.522 23.9943 104.879 24.246C105.25 24.4844 105.529 24.8354 105.714 25.2991C105.729 25.3365 105.743 25.3746 105.757 25.4131C105.779 25.4746 105.799 25.5376 105.819 25.6022C105.846 25.6984 105.871 25.7979 105.893 25.9008C105.908 25.9766 105.922 26.0542 105.934 26.1337H101.024C101.033 26.0806 101.043 26.0285 101.054 25.9771Z" fill="black"/>
<path d="M110.264 32.5524V21.6629H112.787V24.4055C112.822 24.2425 112.861 24.086 112.904 23.936C112.942 23.8096 112.982 23.6876 113.026 23.5705C113.304 22.8286 113.721 22.2724 114.278 21.9013C114.834 21.5172 115.516 21.3252 116.324 21.3252H116.463C117.285 21.3252 117.967 21.5172 118.51 21.9013C119.066 22.2724 119.484 22.8286 119.762 23.5705L119.784 23.6265L119.803 23.6777C119.815 23.6416 119.828 23.6059 119.841 23.5705C120.133 22.8286 120.557 22.2724 121.113 21.9013C121.67 21.5172 122.352 21.3252 123.16 21.3252H123.299C124.12 21.3252 124.809 21.5172 125.365 21.9013C125.935 22.2724 126.366 22.8286 126.657 23.5705C126.948 24.3124 127.095 25.2397 127.095 26.3525V32.5524H123.915V26.1736C123.915 25.5775 123.756 25.094 123.438 24.7231C123.133 24.3521 122.696 24.1667 122.127 24.1667C121.557 24.1667 121.107 24.3588 120.775 24.743C120.444 25.1138 120.279 25.6106 120.279 26.2333V32.5524H117.079V26.1736C117.079 25.5775 116.92 25.094 116.602 24.7231C116.298 24.3521 115.867 24.1667 115.311 24.1667C114.728 24.1667 114.271 24.3588 113.94 24.743C113.609 25.1138 113.443 25.6106 113.443 26.2333V32.5524H110.264Z" fill="black"/>
<path fill-rule="evenodd" clip-rule="evenodd" d="M135.587 30.4533V32.5517H138.111V25.8749C138.111 24.868 137.912 24.0468 137.515 23.4108C137.117 22.7617 136.535 22.2782 135.766 21.9603C135.011 21.6424 134.077 21.4834 132.965 21.4834C132.723 21.4834 132.472 21.486 132.209 21.4912C132.054 21.4945 131.895 21.4984 131.732 21.5033C131.295 21.5165 130.871 21.5364 130.461 21.5629L130.147 21.584C129.986 21.5952 129.835 21.6063 129.692 21.6175C129.585 21.6258 129.484 21.6341 129.388 21.6424V24.325C129.799 24.2985 130.255 24.2719 130.759 24.2455C130.9 24.2381 131.039 24.2313 131.178 24.2249C131.378 24.2156 131.575 24.2076 131.771 24.2006C131.925 24.195 132.078 24.19 132.229 24.1858C132.706 24.1726 133.09 24.166 133.382 24.166C133.965 24.166 134.388 24.305 134.654 24.5833C134.919 24.8615 135.051 25.2788 135.051 25.8352V25.8749H133.084C132.117 25.8749 131.262 26.0008 130.52 26.2525C129.779 26.4909 129.202 26.8684 128.792 27.3851C128.381 27.8886 128.176 28.5376 128.176 29.3324C128.176 30.0611 128.341 30.6903 128.672 31.2204C129.004 31.7367 129.46 32.1342 130.043 32.4122C130.64 32.6905 131.329 32.8297 132.11 32.8297C132.865 32.8297 133.501 32.6905 134.018 32.4122C134.548 32.1342 134.958 31.7367 135.25 31.2204C135.301 31.1331 135.349 31.0428 135.394 30.949C135.457 30.8164 135.513 30.6769 135.562 30.5305L135.587 30.4533ZM135.051 28.5178V27.6434H133.064C132.507 27.6434 132.077 27.7825 131.773 28.0607C131.481 28.3257 131.335 28.69 131.335 29.1536C131.335 29.3718 131.371 29.5701 131.444 29.749C131.517 29.9282 131.626 30.0874 131.773 30.2265C132.077 30.4917 132.507 30.624 133.064 30.624C133.17 30.624 133.272 30.6188 133.371 30.6086C133.452 30.6001 133.53 30.5879 133.606 30.5725C133.752 30.5429 133.889 30.5003 134.018 30.4451C134.309 30.3129 134.548 30.0943 134.733 29.7893C134.919 29.4847 135.025 29.0607 135.051 28.5178Z" fill="black"/>
<path d="M140.014 32.5519V21.6625H142.537V25.2567C142.658 24.2307 142.963 23.4034 143.452 22.7752C144.114 21.9407 145.067 21.5234 146.313 21.5234H146.73V24.2655H145.935C145.061 24.2655 144.385 24.5039 143.908 24.9809C143.432 25.4445 143.193 26.1202 143.193 27.0077V32.5519H140.014Z" fill="black"/>
<path d="M150.761 27.4647H151.815L155.252 32.5518H158.829L154.47 26.3042L158.054 21.6624H154.716L150.761 26.8401V18.0459H147.582V32.5518H150.761V27.4647Z" fill="black"/>
</g>
<defs>
<clipPath id="clip0_16_6929">
<rect width="200" height="48" fill="white" transform="translate(0 0.954102)"/>
</clipPath>
</defs>
</svg>
