<svg width="200" height="49" viewBox="0 0 200 49" fill="none" xmlns="http://www.w3.org/2000/svg">
<g clip-path="url(#clip0_16_6910)">
<path d="M83.098 12.7031H87.9448L82.6631 35.4342H74.139L68.8574 12.7031H73.7045L77.6492 31.4228H79.1533L83.098 12.7031Z" fill="black"/>
<path d="M92.5675 28.9828C92.5897 30.0079 92.857 30.7545 93.3696 31.2225C93.9043 31.6682 94.6621 31.8911 95.6428 31.8911C97.7152 31.8911 99.565 31.8242 101.192 31.6905L102.128 31.5902L102.195 34.8997C99.6319 35.5236 97.314 35.8357 95.2416 35.8357C92.7235 35.8357 90.8959 35.1671 89.7595 33.8299C88.6227 32.4928 88.0547 30.32 88.0547 27.3115C88.0547 21.3167 90.5172 18.3193 95.442 18.3193C100.3 18.3193 102.729 20.8376 102.729 25.874L102.395 28.9828H92.5675ZM98.3169 25.5732C98.3169 24.2361 98.1054 23.3112 97.6819 22.7987C97.2585 22.2638 96.5119 21.9964 95.442 21.9964C94.3947 21.9964 93.6481 22.275 93.2024 22.8321C92.779 23.3669 92.5564 24.2806 92.5338 25.5732H98.3169Z" fill="black"/>
<path d="M105.262 35.4345V18.7205H109.708V20.4921C111.58 19.3779 113.362 18.6536 115.056 18.3193V22.8321C113.251 23.2109 111.702 23.6009 110.409 24.0021L109.741 24.2361V35.4345H105.262Z" fill="black"/>
<path d="M126.29 22.5315H122.178V29.3842C122.178 30.0528 122.189 30.5319 122.212 30.8216C122.256 31.089 122.379 31.323 122.579 31.5236C122.802 31.7242 123.136 31.8245 123.582 31.8245L126.123 31.7576L126.323 35.3345C124.83 35.6688 123.694 35.836 122.914 35.836C120.908 35.836 119.537 35.39 118.802 34.4987C118.067 33.5849 117.699 31.9136 117.699 29.4845V22.5315H115.727V18.7207H117.699V14.0742H122.178V18.7207H126.29V22.5315Z" fill="black"/>
<path d="M128.539 35.4347V18.7207H133.019V35.4347H128.539ZM128.539 16.5813V12.0352H133.019V16.5813H128.539Z" fill="black"/>
<path d="M151.631 37.5074C151.631 39.4241 150.895 40.8391 149.425 41.7528C147.954 42.6666 145.959 43.1234 143.441 43.1234C140.945 43.1234 139.018 42.7891 137.658 42.1204C136.321 41.4522 135.652 40.2374 135.652 38.4771C135.652 37.0729 136.455 35.7471 138.059 34.499C137.235 33.9418 136.822 33.0949 136.822 31.9585C136.822 31.5128 137.157 30.7774 137.825 29.7522L138.126 29.2842C136.611 28.1923 135.853 26.5877 135.853 24.4706C135.853 22.3312 136.488 20.7824 137.758 19.8241C139.051 18.8659 140.756 18.3867 142.873 18.3867C143.831 18.3867 144.778 18.4982 145.714 18.721L146.249 18.8213L151.631 18.6542V22.231L149.124 22.0304C149.614 22.7881 149.859 23.5458 149.859 24.3035C149.859 26.532 149.291 28.0697 148.154 28.9165C147.018 29.7634 145.235 30.1868 142.806 30.1868C142.293 30.1868 141.837 30.1422 141.435 30.0531C141.213 30.6325 141.101 31.1116 141.101 31.4905C141.101 31.847 141.291 32.0922 141.669 32.2259C142.048 32.3596 142.94 32.4376 144.344 32.4599C147.152 32.4822 149.068 32.8612 150.093 33.5964C151.118 34.3097 151.631 35.6133 151.631 37.5074ZM140.065 38.0089C140.065 38.9671 141.235 39.4463 143.575 39.4463C145.937 39.4463 147.118 38.8891 147.118 37.7748C147.118 37.1731 146.918 36.7833 146.517 36.6051C146.115 36.449 145.268 36.3599 143.976 36.3374L140.968 36.1036C140.366 36.7053 140.065 37.3403 140.065 38.0089ZM140.332 24.3369C140.332 25.9637 141.179 26.7772 142.873 26.7772C144.589 26.7772 145.447 25.9637 145.447 24.3369C145.447 22.6878 144.589 21.8632 142.873 21.8632C141.179 21.8632 140.332 22.6878 140.332 24.3369Z" fill="black"/>
<path d="M154.578 20.6258C155.759 19.0882 157.731 18.3193 160.495 18.3193C163.258 18.3193 165.231 19.0882 166.412 20.6258C167.593 22.1412 168.183 24.2806 168.183 27.044C168.183 32.905 165.621 35.8357 160.495 35.8357C155.369 35.8357 152.807 32.905 152.807 27.044C152.807 24.2806 153.397 22.1412 154.578 20.6258ZM158.021 30.8214C158.489 31.6236 159.314 32.0248 160.495 32.0248C161.676 32.0248 162.489 31.6236 162.935 30.8214C163.403 30.0191 163.637 28.76 163.637 27.044C163.637 25.3281 163.403 24.0801 162.935 23.3001C162.489 22.5201 161.676 22.1301 160.495 22.1301C159.314 22.1301 158.489 22.5201 158.021 23.3001C157.576 24.0801 157.353 25.3281 157.353 27.044C157.353 28.76 157.576 30.0191 158.021 30.8214Z" fill="black"/>
<path fill-rule="evenodd" clip-rule="evenodd" d="M51.8676 11.4289C49.8658 10.5997 47.7002 10.2422 45.5381 10.3839C43.3761 10.5256 41.2756 11.1628 39.3992 12.2461L37.506 13.3391L35.3199 9.55273L37.2131 8.45968C39.6703 7.04101 42.4209 6.20663 45.2522 6.02105C48.0834 5.8355 50.9194 6.30372 53.5408 7.38951C56.1621 8.47529 58.4985 10.1496 60.3694 12.2828C62.24 14.416 63.595 16.951 64.3296 19.6916C65.0638 22.4323 65.1579 25.3051 64.6044 28.0879C64.0508 30.8707 62.8646 33.4889 61.1372 35.7399C59.4098 37.9909 57.1881 39.8144 54.6433 41.0693C52.0986 42.3241 48.8163 42.9769 46.462 42.9769C44.1076 42.9769 42.7329 42.6237 40.9276 41.8761C39.173 41.1493 37.5787 40.0842 36.2358 38.7412C34.8929 37.3983 33.8276 35.8038 33.1009 34.0492C32.3741 32.2947 32 30.4142 32 28.5151C32 26.6159 32.3741 24.7353 33.1009 22.9807C33.8276 21.2261 34.8929 19.6319 36.2358 18.289C37.5787 16.946 39.173 15.8808 40.9276 15.154C42.6822 14.4273 44.5627 14.0532 46.4619 14.0532C48.3611 14.0532 50.2416 14.4273 51.9962 15.154C53.7508 15.8808 55.3451 16.9461 56.688 18.289C58.0309 19.6319 59.0961 21.2261 59.8228 22.9807C60.1356 23.7354 60.3828 24.5135 60.5634 25.3063C60.6515 23.8013 60.4985 22.2875 60.1064 20.8232C59.5454 18.7304 58.5108 16.7946 57.0822 15.1655C55.6536 13.5366 53.8694 12.258 51.8676 11.4289ZM37.7301 33.5703C37.978 28.87 41.8679 25.1351 46.63 25.1351C51.2081 25.1351 54.98 28.5868 55.4851 33.0298C55.5922 32.8159 55.6917 32.5978 55.7835 32.3762C56.2906 31.1521 56.5516 29.84 56.5516 28.5151C56.5516 27.19 56.2906 25.878 55.7835 24.6539C55.2765 23.4298 54.5333 22.3175 53.5964 21.3806C52.6595 20.4437 51.5472 19.7005 50.323 19.1934C49.0989 18.6863 47.7869 18.4254 46.4619 18.4254C45.1369 18.4254 43.8249 18.6863 42.6007 19.1934C41.3766 19.7005 40.2643 20.4437 39.3274 21.3806C38.3905 22.3175 37.6473 23.4298 37.1402 24.6539C36.6332 25.878 36.3722 27.19 36.3722 28.5151C36.3722 29.84 36.6332 31.1521 37.1402 32.3762C37.3107 32.7877 37.5078 33.1865 37.7301 33.5703ZM51.1704 34.0475C51.1704 36.5551 49.1376 38.5879 46.63 38.5879C44.1225 38.5879 42.0897 36.5551 42.0897 34.0475C42.0897 31.54 44.1225 29.5073 46.63 29.5073C49.1376 29.5073 51.1704 31.54 51.1704 34.0475Z" fill="black"/>
</g>
<defs>
<clipPath id="clip0_16_6910">
<rect width="200" height="48" fill="white" transform="translate(0 0.954102)"/>
</clipPath>
</defs>
</svg>
