<svg width="200" height="57" viewBox="0 0 200 57" fill="none" xmlns="http://www.w3.org/2000/svg">
<g clip-path="url(#clip0_16_6901)">
<path d="M107.041 36.3902V18.1182H110.352V36.3902H107.041Z" fill="black"/>
<path d="M79.0156 18.623L86.0159 36.3896H88.7451L95.8215 18.623H92.1571L87.4218 31.0968L82.7305 18.623H79.0156Z" fill="black"/>
<path fill-rule="evenodd" clip-rule="evenodd" d="M96.3186 35.8086C97.3127 36.3647 98.4249 36.6424 99.6549 36.6424C100.884 36.6424 101.988 36.3647 102.965 35.8086C103.959 35.2356 104.743 34.4692 105.316 33.5088C105.889 32.5316 106.175 31.445 106.175 30.2486C106.175 29.0524 105.889 27.9825 105.316 27.039C104.743 26.0787 103.959 25.3205 102.965 24.7645C101.988 24.1917 100.876 23.9053 99.6296 23.9053C98.4165 23.9053 97.3127 24.1917 96.3186 24.7645C95.3246 25.3205 94.5413 26.0787 93.9684 27.039C93.3955 27.9825 93.1094 29.0524 93.1094 30.2486C93.1094 31.445 93.3955 32.5316 93.9684 33.5088C94.5582 34.4692 95.3414 35.2356 96.3186 35.8086ZM101.272 33.155C100.8 33.4247 100.253 33.5593 99.6296 33.5593C99.023 33.5593 98.4838 33.4247 98.0122 33.155C97.5402 32.8686 97.1696 32.4811 96.9 31.9923C96.6304 31.4871 96.4957 30.9141 96.4957 30.2739C96.4957 29.6337 96.6304 29.0692 96.9 28.5806C97.1696 28.092 97.5402 27.713 98.0122 27.4434C98.4838 27.157 99.023 27.0138 99.6296 27.0138C100.253 27.0138 100.8 27.157 101.272 27.4434C101.744 27.713 102.114 28.092 102.384 28.5806C102.654 29.0692 102.788 29.6337 102.788 30.2739C102.788 30.9141 102.654 31.4871 102.384 31.9923C102.131 32.4811 101.761 32.8686 101.272 33.155Z" fill="black"/>
<path d="M114.347 35.9594C115.189 36.4145 116.149 36.6417 117.228 36.6417C118.306 36.6417 119.258 36.4229 120.083 35.9846C120.926 35.5299 121.575 34.898 122.029 34.0895C122.501 33.2806 122.737 32.337 122.737 31.2589V24.1826H119.426V31.183C119.426 31.9412 119.233 32.5309 118.845 32.952C118.458 33.3731 117.919 33.5839 117.228 33.5839C116.773 33.5839 116.377 33.4913 116.04 33.3058C115.703 33.1207 115.45 32.8511 115.282 32.4973C115.113 32.1267 115.029 31.6884 115.029 31.183V24.1826H111.693V31.2589C111.693 32.3202 111.929 33.2553 112.401 34.0642C112.873 34.8728 113.521 35.5046 114.347 35.9594Z" fill="black"/>
<path d="M124.109 36.39V24.1834H127.42V25.2424C127.716 24.9533 128.053 24.7098 128.431 24.5119C129.138 24.1244 129.939 23.9307 130.832 23.9307C131.674 23.9307 132.441 24.1244 133.131 24.5119C133.71 24.8225 134.189 25.2456 134.567 25.781C134.975 25.2599 135.474 24.8453 136.063 24.5372C136.804 24.1328 137.63 23.9307 138.54 23.9307C139.45 23.9307 140.267 24.1244 140.991 24.5119C141.716 24.8826 142.288 25.4217 142.71 26.1293C143.131 26.837 143.342 27.6794 143.342 28.6566V36.39H140.031V29.1873C140.031 28.4797 139.803 27.9321 139.348 27.5446C138.91 27.1402 138.363 26.9381 137.706 26.9381C137.284 26.9381 136.889 27.0307 136.518 27.216C136.164 27.3846 135.886 27.6372 135.684 27.9742C135.482 28.3112 135.381 28.7155 135.381 29.1873V36.39H132.07V29.1873C132.07 28.4797 131.842 27.9321 131.388 27.5446C130.95 27.1402 130.402 26.9381 129.745 26.9381C129.307 26.9381 128.911 27.0307 128.557 27.216C128.203 27.3846 127.925 27.6372 127.723 27.9742C127.521 28.3112 127.42 28.7155 127.42 29.1873V36.39H124.109Z" fill="black"/>
<path fill-rule="evenodd" clip-rule="evenodd" d="M147.188 35.8338C148.182 36.3731 149.319 36.6424 150.6 36.6424C151.594 36.6424 152.512 36.4656 153.354 36.1119C154.214 35.7581 154.938 35.2356 155.528 34.5449L153.582 32.5989C153.211 33.02 152.773 33.3402 152.268 33.5593C151.762 33.7616 151.198 33.8626 150.575 33.8626C149.884 33.8626 149.277 33.7192 148.755 33.4331C148.233 33.1298 147.828 32.7083 147.542 32.1694C147.434 31.947 147.348 31.7103 147.283 31.4586L156.21 31.4362C156.278 31.15 156.32 30.8973 156.337 30.6783C156.371 30.4424 156.387 30.2149 156.387 29.9959C156.387 28.8334 156.126 27.7972 155.604 26.8874C155.098 25.9608 154.391 25.2363 153.481 24.714C152.588 24.1748 151.552 23.9053 150.372 23.9053C149.176 23.9053 148.089 24.1917 147.112 24.7645C146.135 25.3205 145.36 26.0787 144.787 27.039C144.231 27.9825 143.953 29.0608 143.953 30.2739C143.953 31.5039 144.24 32.5989 144.813 33.5593C145.402 34.5197 146.194 35.2777 147.188 35.8338ZM147.286 28.9811C147.345 28.7577 147.422 28.5484 147.517 28.3532C147.786 27.8141 148.165 27.4013 148.654 27.1148C149.142 26.8116 149.715 26.6599 150.372 26.6599C150.996 26.6599 151.518 26.7948 151.939 27.0643C152.377 27.317 152.706 27.6877 152.925 28.1763C153.038 28.4115 153.129 28.6741 153.195 28.964L147.286 28.9811Z" fill="black"/>
<path fill-rule="evenodd" clip-rule="evenodd" d="M58.6701 43.7289C67.1627 43.7289 74.047 36.8442 74.047 28.3518C74.047 19.8592 67.1627 12.9746 58.6701 12.9746C50.1775 12.9746 43.293 19.8592 43.293 28.3518C43.293 36.8442 50.1775 43.7289 58.6701 43.7289ZM65.0386 18.9398C65.2211 19.0941 65.3261 19.321 65.3261 19.56L65.3258 22.6494L65.3261 22.8527L65.3258 22.877V33.2186C65.3258 35.0146 63.8697 36.4707 62.0737 36.4707C60.2777 36.4707 58.8217 35.0146 58.8217 33.2186C58.8217 31.4226 60.2777 29.9665 62.0737 29.9665C62.666 29.9665 63.2214 30.1249 63.6996 30.4017V23.8124L55.5694 25.1677V34.8445C55.5694 36.6408 54.1135 38.0966 52.3175 38.0966C50.5214 38.0966 49.0655 36.6408 49.0655 34.8445C49.0655 33.0485 50.5214 31.5924 52.3175 31.5924C52.9098 31.5924 53.4654 31.7508 53.9434 32.0278L53.9438 24.4787L53.9434 24.2754L53.9438 24.2511V21.186C53.9438 20.7887 54.2311 20.4495 54.6233 20.384L64.3793 18.7581C64.6149 18.7188 64.856 18.7852 65.0386 18.9398Z" fill="black"/>
</g>
<defs>
<clipPath id="clip0_16_6901">
<rect width="200" height="56" fill="white" transform="translate(0 0.954102)"/>
</clipPath>
</defs>
</svg>
